<?xml version="1.0" encoding="UTF-8"?>
<!DOCTYPE svg PUBLIC "-//W3C//DTD SVG 1.1//EN" "http://www.w3.org/Graphics/SVG/1.1/DTD/svg11.dtd">
<!-- Creator: CorelDRAW X8 -->
<svg xmlns="http://www.w3.org/2000/svg" xml:space="preserve" width="156.816mm" height="168.275mm" version="1.1" style="shape-rendering:geometricPrecision; text-rendering:geometricPrecision; image-rendering:optimizeQuality; fill-rule:evenodd; clip-rule:evenodd"
viewBox="0 0 16317 17510"
 xmlns:xlink="http://www.w3.org/1999/xlink">
 <defs>
  <style type="text/css">
   <![CDATA[
    .str0 {stroke:#4BF9F9;stroke-width:293.661}
    .fil1 {fill:none;fill-rule:nonzero}
    .fil0 {fill:#0C4270;fill-rule:nonzero}
    .fil8 {fill:#2B3860;fill-rule:nonzero}
    .fil7 {fill:#4BF9F9;fill-rule:nonzero}
    .fil4 {fill:url(#id1);fill-rule:nonzero}
    .fil6 {fill:url(#id2);fill-rule:nonzero}
    .fil2 {fill:url(#id3);fill-rule:nonzero}
    .fil3 {fill:url(#id4);fill-rule:nonzero}
    .fil5 {fill:url(#id5);fill-rule:nonzero}
   ]]>
  </style>
     <clipPath id="id0" style="clip-rule:nonzero">
      <rect width="15931" height="17510"/>
     </clipPath>
  <linearGradient id="id1" gradientUnits="userSpaceOnUse" x1="1452.99" y1="9240.87" x2="14520.8" y2="9240.87">
   <stop offset="0" style="stop-opacity:1; stop-color:#5400FF"/>
   <stop offset="1" style="stop-opacity:1; stop-color:#EB1152"/>
  </linearGradient>
  <linearGradient id="id2" gradientUnits="userSpaceOnUse" xlink:href="#id1" x1="1400.13" y1="14111.6" x2="-634.854" y2="16142.1">
  </linearGradient>
  <linearGradient id="id3" gradientUnits="userSpaceOnUse" xlink:href="#id1" x1="15564.1" y1="3756.74" x2="14325" y2="5039.9">
  </linearGradient>
  <linearGradient id="id4" gradientUnits="userSpaceOnUse" xlink:href="#id1" x1="13510" y1="635.395" x2="12219.5" y2="1902.5">
  </linearGradient>
  <linearGradient id="id5" gradientUnits="userSpaceOnUse" xlink:href="#id1" x1="4027.08" y1="16864.4" x2="5894" y2="15159.4">
  </linearGradient>
 </defs>
 <g id="OBJECTS">
  <metadata id="CorelCorpID_0Corel-Layer"/>
  <g id="_1071474992">
   <g>
    <polygon class="fil0" points="4300,11159 4396,10996 4509,10806 3888,10439 4111,10828 "/>
    <polygon class="fil0" points="4730,10431 4843,10241 3227,9286 3450,9675 "/>
    <polygon class="fil0" points="5064,9866 5177,9676 2567,8134 2789,8522 "/>
    <polygon class="fil0" points="5398,9301 5511,9110 1906,6981 2129,7370 "/>
    <polygon class="fil0" points="5732,8736 5844,8545 1245,5828 1468,6217 "/>
    <polygon class="fil0" points="6066,8170 6178,7980 1753,5366 1311,5362 "/>
    <polygon class="fil0" points="6400,7605 6512,7415 3063,5377 2621,5373 "/>
    <polygon class="fil0" points="6733,7040 6846,6849 4372,5388 3931,5384 "/>
    <polygon class="fil0" points="7067,6475 7180,6284 5682,5399 5240,5396 "/>
    <polygon class="fil0" points="6550,5407 7401,5910 7514,5719 6992,5411 "/>
   </g>
   <polygon class="fil1 str0" points="8238,16749 409,8919 8238,1090 16068,8919 "/>
   <g>
    <path class="fil0" d="M13002 11444c53,7 105,15 156,26 -3,13 -10,26 -20,36 -31,31 -82,31 -113,-1 -17,-17 -24,-39 -23,-61zm2029 1898c11,52 19,104 26,157 -22,1 -45,-7 -62,-24 -31,-31 -31,-81 0,-112l0 0c10,-10 23,-17 36,-21zm-233 -176l0 0c31,-31 81,-31 112,0 32,31 32,82 1,113 -31,31 -82,31 -113,-1 -31,-31 -31,-81 0,-112zm-197 -197l0 0c31,-31 81,-31 113,0 31,31 31,81 -1,113 -31,31 -81,31 -112,0 -31,-32 -31,-82 0,-113zm-197 -197l0 0c31,-31 81,-31 113,0 31,31 31,81 -1,113 -31,31 -81,31 -112,0 -31,-32 -31,-82 0,-113zm-197 -197l0 0c31,-31 81,-31 112,0 32,31 32,82 1,113 -31,31 -82,31 -113,-1 -31,-31 -31,-81 0,-112zm-197 -197l0 0c31,-31 81,-31 113,0 31,31 31,82 0,113 -31,31 -82,31 -113,0 -31,-32 -31,-82 0,-113zm-197 -197l0 0c31,-31 81,-31 113,0 31,31 31,81 -1,113 -31,31 -81,31 -112,0 -31,-32 -31,-82 0,-113zm-197 -197l0 0c31,-31 81,-31 112,0 32,31 32,82 1,113 -31,31 -82,31 -113,-1 -31,-31 -31,-81 0,-112zm-197 -197l0 0c31,-31 81,-31 113,0 31,31 31,82 0,113 -31,31 -82,31 -113,0 -31,-32 -31,-82 0,-113zm-197 -197l0 0c31,-31 81,-31 113,0 31,31 31,81 -1,113 -31,31 -81,31 -112,0 -31,-32 -31,-82 0,-113z"/>
    <path class="fil0" d="M14886 14765c-20,46 -41,92 -63,136 -18,-1 -35,-9 -49,-23 -31,-31 -31,-81 0,-112l0 0c31,-31 81,-31 112,-1zm-3287 -3086c45,-23 91,-44 137,-64 30,31 30,81 -1,112 -31,31 -82,31 -113,0 -13,-14 -21,-31 -23,-48zm2978 2890l0 0c31,-31 82,-31 113,0 31,31 31,81 0,113 -31,31 -82,31 -113,-1 -31,-31 -31,-81 0,-112zm-197 -197l0 0c31,-31 82,-31 113,0 31,31 31,81 -1,112 -31,31 -81,32 -112,1 -31,-32 -31,-82 0,-113zm-197 -197l0 0c31,-31 82,-31 113,0 31,31 31,81 -1,112 -30,31 -81,32 -112,0 -31,-31 -31,-81 0,-112zm-197 -197l0 0c31,-31 82,-31 113,0 31,31 31,82 0,113 -31,31 -82,31 -113,-1 -31,-31 -31,-81 0,-112zm-197 -197l0 0c31,-31 82,-31 113,0 31,31 31,81 -1,112 -30,31 -81,32 -112,1 -31,-31 -31,-82 0,-113zm-197 -197l0 0c31,-31 82,-31 113,0 31,31 31,81 0,112 -31,31 -82,32 -113,1 -31,-31 -31,-82 0,-113zm-197 -197l0 0c31,-31 82,-31 113,0 31,31 31,82 0,113 -31,31 -82,31 -113,-1 -31,-30 -31,-81 0,-112zm-197 -197l0 0c31,-31 82,-31 113,0 31,31 31,82 0,113 -31,31 -82,31 -113,0 -31,-31 -31,-82 0,-113zm-197 -197l0 0c31,-31 82,-31 113,0 31,31 31,81 0,113 -31,30 -82,31 -113,0 -31,-31 -31,-82 0,-113zm-197 -197l0 0c31,-31 82,-31 113,0 31,31 31,82 0,113 -31,31 -82,31 -113,0 -31,-31 -31,-82 0,-113zm-197 -197l0 0c31,-31 82,-31 113,0 31,31 31,82 0,113 -31,31 -82,31 -113,0 -31,-31 -31,-82 0,-113zm-197 -197l0 0c32,-31 82,-31 113,0 31,31 31,81 0,113 -31,31 -82,31 -113,0 -31,-31 -31,-82 0,-113zm-197 -197l0 0c32,-31 82,-31 113,0 31,31 31,82 0,113 -31,31 -82,31 -113,0 -31,-31 -31,-82 0,-113zm-197 -197l0 0c31,-31 82,-31 113,0 31,31 31,82 0,113 -31,31 -82,31 -113,0 -31,-31 -31,-82 0,-113zm-197 -197l0 0c31,-31 82,-31 113,0 31,31 31,81 0,113 -31,31 -82,31 -113,0 -31,-31 -31,-82 0,-113z"/>
    <path class="fil0" d="M14368 15172l0 0c31,-31 82,-31 113,0 31,31 31,81 0,112 -32,31 -82,31 -113,0 -31,-31 -31,-81 0,-112zm-197 -197l0 0c31,-31 82,-31 113,0 31,31 31,82 0,113 -31,31 -82,30 -113,-1 -31,-31 -31,-81 0,-112zm-197 -197l0 0c31,-31 82,-31 113,0 31,31 31,81 0,112 -32,31 -82,31 -113,1 -31,-32 -31,-82 0,-113zm-197 -197l0 0c31,-31 82,-31 113,0 31,31 31,81 0,112 -32,31 -82,31 -113,0 -31,-31 -31,-81 0,-112zm-197 -197l0 0c31,-31 82,-31 113,0 31,31 31,82 0,113 -31,31 -82,30 -113,-1 -31,-31 -31,-81 0,-112zm-197 -197l0 0c31,-31 82,-31 113,0 31,31 31,81 0,112 -32,32 -82,32 -113,1 -31,-32 -31,-82 0,-113zm-197 -197l0 0c31,-31 82,-31 113,0 31,31 31,81 0,112 -32,32 -82,32 -113,1 -31,-32 -31,-82 0,-113zm-197 -197l0 0c31,-31 82,-31 113,0 31,31 31,82 0,113 -31,31 -82,31 -113,-1 -31,-31 -31,-81 0,-112zm-197 -197l0 0c31,-31 82,-31 113,0 31,31 31,82 0,113 -31,31 -82,31 -113,0 -31,-32 -31,-82 0,-113zm-197 -197l0 0c31,-31 82,-31 113,0 31,31 31,81 0,112 -31,32 -82,32 -113,1 -31,-32 -31,-82 0,-113zm-197 -197l0 0c31,-31 82,-31 113,0 31,31 31,82 0,113 -31,31 -82,31 -113,-1 -31,-31 -31,-81 0,-112zm-197 -197l0 0c31,-31 82,-31 113,0 31,31 31,82 0,113 -31,31 -82,31 -113,0 -31,-32 -31,-82 0,-113zm-197 -197l0 0c31,-31 82,-31 113,0 31,31 31,81 0,112 -31,32 -82,32 -113,1 -31,-32 -31,-82 0,-113zm-197 -197l0 0c31,-31 82,-31 113,0 31,31 31,82 0,113 -31,31 -82,31 -113,-1 -31,-31 -31,-81 0,-112zm-197 -197l0 0c31,-31 82,-31 113,0 31,31 31,82 0,113 -31,31 -82,31 -112,0 -32,-32 -32,-82 -1,-113zm-197 -197l0 0c31,-31 82,-31 113,0 31,31 31,81 0,112 -31,32 -82,32 -112,1 -32,-32 -32,-82 -1,-113zm-196 -197l0 0c30,-31 81,-31 112,0 31,31 31,81 0,112 -31,32 -82,32 -113,0 -31,-31 -31,-81 1,-112z"/>
    <path class="fil0" d="M15058 14142c-7,52 -16,105 -26,156 -18,-1 -35,-9 -49,-23 -31,-31 -31,-81 0,-112l0 0c20,-21 49,-28 75,-21zm-2856 -2673c52,-10 104,-19 157,-26 6,26 -1,54 -21,75 -31,30 -82,31 -113,0 -13,-14 -21,-31 -23,-49zm2584 2497l0 0c31,-31 82,-31 113,0 31,31 31,81 0,112 -31,31 -82,32 -113,1 -31,-32 -31,-82 0,-113zm-197 -197l0 0c31,-31 82,-31 113,0 31,31 31,81 0,112 -31,31 -82,32 -113,0 -31,-31 -31,-81 0,-112zm-197 -197l0 0c31,-31 82,-31 113,0 31,31 31,81 0,113 -31,31 -82,31 -113,-1 -31,-31 -31,-81 0,-112zm-197 -197l0 0c31,-31 82,-31 113,0 31,31 31,81 0,112 -31,31 -82,32 -113,1 -31,-32 -31,-82 0,-113zm-197 -197l0 0c32,-31 82,-31 113,0 31,31 31,81 0,112 -31,31 -82,32 -113,1 -31,-32 -31,-82 0,-113zm-197 -197l0 0c32,-31 82,-31 113,0 31,31 31,81 0,113 -31,31 -82,31 -113,-1 -31,-31 -31,-81 0,-112zm-197 -197l0 0c31,-31 82,-31 113,0 31,31 31,81 0,113 -31,31 -82,31 -113,0 -31,-32 -31,-82 0,-113zm-197 -197l0 0c32,-31 82,-31 113,0 31,31 31,81 0,112 -31,31 -82,32 -113,1 -31,-32 -31,-82 0,-113zm-197 -197l0 0c32,-31 82,-31 113,0 31,31 31,82 0,113 -31,31 -82,31 -113,-1 -31,-30 -31,-81 0,-112zm-197 -197l0 0c31,-31 82,-31 113,0 31,31 31,82 0,113 -31,31 -82,31 -113,0 -31,-31 -31,-82 0,-113zm-197 -197l0 0c32,-31 82,-31 113,0 31,31 31,81 0,113 -31,30 -82,31 -113,0 -31,-31 -31,-82 0,-113zm-197 -197l0 0c32,-31 82,-31 113,0 31,31 31,82 0,113 -31,31 -82,31 -113,0 -31,-31 -31,-82 0,-113zm-197 -197l0 0c31,-31 82,-31 113,0 31,31 31,82 0,113 -31,31 -82,31 -113,0 -31,-31 -31,-82 0,-113z"/>
    <path class="fil0" d="M13962 15578l0 0c32,-31 82,-31 113,0 31,31 31,81 0,112 -31,31 -82,32 -113,0 -31,-31 -31,-81 0,-112zm-197 -197l0 0c31,-31 82,-31 113,0 31,31 31,81 0,113 -31,31 -82,31 -113,-1 -31,-31 -31,-81 0,-112zm-197 -197l0 0c31,-31 82,-31 113,0 31,31 31,81 0,112 -31,31 -82,32 -113,1 -31,-32 -31,-82 0,-113zm-197 -197l0 0c32,-31 82,-31 113,0 31,31 31,81 0,112 -31,31 -82,32 -113,0 -31,-31 -31,-81 0,-112zm-197 -197l0 0c31,-31 82,-31 113,0 31,31 31,81 0,113 -31,31 -82,31 -113,-1 -31,-31 -31,-81 0,-112zm-197 -197l0 0c31,-31 82,-31 113,0 31,31 31,81 0,112 -31,31 -82,32 -113,1 -31,-32 -31,-82 0,-113zm-197 -197l0 0c32,-31 82,-31 113,0 31,31 31,81 0,112 -31,31 -82,32 -113,1 -31,-32 -31,-82 0,-113zm-197 -197l0 0c32,-31 82,-31 113,0 31,31 31,81 0,113 -31,31 -82,31 -113,-1 -31,-31 -31,-81 0,-112zm-197 -197l0 0c31,-31 82,-31 113,0 31,31 31,81 0,113 -31,31 -82,31 -113,0 -31,-32 -31,-82 0,-113zm-197 -197l0 0c32,-31 82,-31 113,0 31,31 31,81 0,112 -31,31 -82,32 -113,1 -31,-32 -31,-82 0,-113zm-197 -197l0 0c32,-31 82,-31 113,0 31,31 31,81 0,113 -31,31 -82,31 -113,-1 -31,-31 -31,-81 0,-112zm-197 -197l0 0c31,-31 82,-31 113,0 31,31 31,81 0,113 -31,31 -82,31 -113,0 -31,-32 -31,-82 0,-113zm-197 -197l0 0c32,-31 82,-31 113,0 31,31 31,81 0,112 -31,31 -82,32 -113,1 -31,-32 -31,-82 0,-113zm-197 -197l0 0c32,-31 82,-31 113,0 31,31 31,81 0,113 -31,31 -82,31 -113,-1 -31,-31 -31,-81 0,-112zm-197 -197l0 0c31,-31 82,-31 113,0 31,31 31,82 0,113 -31,31 -82,31 -113,0 -31,-32 -31,-82 0,-113zm-197 -197l0 0c31,-31 82,-31 113,0 31,31 31,81 0,112 -31,31 -82,32 -113,1 -31,-31 -31,-82 0,-113zm-197 -197l0 0c32,-31 82,-31 113,0 31,31 31,81 0,112 -31,31 -82,32 -113,0 -31,-30 -30,-81 0,-112z"/>
    <path class="fil0" d="M13682 16001c-48,22 -96,43 -146,62 -8,-27 -1,-58 20,-79l0 0c31,-31 82,-31 113,0 5,5 10,11 13,17zm-3244 -3037c19,-49 40,-98 62,-145 6,3 12,7 17,13 31,31 31,81 0,112 -21,22 -52,28 -79,20zm2921 2823l0 0c31,-31 82,-31 113,0 31,31 31,81 0,112 -31,32 -82,31 -113,0 -31,-31 -31,-81 0,-112zm-197 -197l0 0c31,-31 82,-31 113,0 31,31 31,81 0,112 -31,31 -82,31 -113,0 -31,-31 -31,-81 0,-112zm-196 -197l0 0c30,-31 81,-31 112,0 31,31 31,81 0,112 -31,31 -82,31 -113,0 -31,-31 -31,-81 1,-112zm-198 -197l0 0c31,-31 82,-31 113,0 31,31 31,81 0,112 -31,32 -82,31 -113,0 -31,-31 -31,-81 0,-112zm-197 -197l0 0c31,-31 82,-31 113,0 31,31 31,81 0,112 -31,31 -82,31 -112,0 -32,-31 -32,-81 -1,-112zm-196 -197l0 0c30,-31 81,-31 112,0 31,31 31,81 0,112 -31,31 -82,31 -112,0 -32,-31 -32,-81 0,-112zm-197 -197l0 0c31,-31 81,-31 112,0 31,31 31,82 0,112 -31,32 -81,31 -113,0 -31,-31 -31,-81 1,-112zm-198 -197l0 0c31,-31 82,-31 113,0 31,31 31,82 0,112 -31,32 -81,31 -112,0 -32,-31 -32,-81 -1,-112zm-196 -197l0 0c31,-31 81,-31 112,0 31,31 31,81 0,112 -31,31 -81,31 -112,0 -32,-31 -32,-81 0,-112zm-197 -197l0 0c31,-31 81,-31 112,0 31,31 31,82 0,112 -31,32 -81,31 -113,0 -31,-31 -31,-81 1,-112zm-198 -197l0 0c31,-31 82,-31 113,0 31,31 31,82 0,112 -31,32 -81,31 -112,0 -32,-31 -32,-81 -1,-112zm-196 -197l0 0c31,-31 81,-31 112,0 31,31 31,81 0,112 -31,31 -81,31 -112,1 -32,-32 -32,-82 0,-113zm-197 -197l0 0c31,-31 81,-31 112,0 31,31 31,82 0,113 -31,31 -81,30 -113,-1 -31,-31 -31,-81 1,-112zm-198 -197l0 0c31,-31 82,-31 113,0 31,31 31,82 0,113 -31,31 -81,30 -112,0 -32,-32 -32,-82 -1,-113zm-197 -197l0 0c31,-31 82,-31 113,0 31,31 31,81 0,112 -31,32 -81,31 -112,1 -32,-32 -32,-82 -1,-113z"/>
    <path class="fil0" d="M12047 16136c-34,-9 -68,-20 -102,-30 -19,-31 -15,-72 11,-99l0 0c31,-31 82,-31 113,0 31,32 31,82 0,113 -6,7 -14,12 -22,16zm-1652 -1580c-10,-34 -21,-68 -30,-102 4,-8 9,-16 16,-22l0 0c31,-31 81,-31 112,0 31,31 31,81 0,112 -27,27 -67,31 -98,12zm1364 1254l0 0c31,-31 82,-31 113,1 31,31 31,81 0,112 -31,31 -81,31 -112,0 -32,-31 -32,-81 -1,-113zm-196 -196l0 0c31,-31 81,-32 112,0 31,31 31,81 0,112 -31,31 -81,31 -112,0 -32,-31 -32,-81 0,-112zm-197 -197l0 0c31,-31 81,-31 112,-1 31,32 31,82 0,113 -31,32 -81,31 -113,0 -31,-31 -31,-81 1,-112zm-198 -198l0 0c31,-30 82,-30 113,1 31,31 31,81 0,112 -31,32 -81,31 -112,0 -32,-31 -32,-81 -1,-113zm-196 -196l0 0c31,-31 81,-31 112,0 31,31 31,81 0,112 -31,31 -81,31 -112,0 -32,-31 -32,-81 0,-112zm-197 -197l0 0c31,-31 81,-31 112,0 31,31 31,81 0,112 -31,32 -81,31 -113,0 -31,-31 -31,-81 1,-112zm-198 -197l0 0c31,-31 82,-31 113,0 31,31 31,81 0,112 -31,32 -81,31 -112,0 -32,-31 -32,-81 -1,-112z"/>
    <path class="fil0" d="M13063 16190c-40,6 -80,12 -121,16 3,-5 7,-9 11,-14l0 0c30,-30 79,-30 110,-2zm-2768 -2632c4,-40 10,-80 16,-120 28,31 27,79 -3,109 -4,4 -8,8 -13,11zm2461 2437l0 0c31,-31 82,-30 113,1 31,31 31,81 0,112 -31,31 -82,31 -113,0 -31,-31 -31,-81 0,-113zm-196 -196l0 0c31,-31 81,-31 112,0 31,31 31,81 0,112 -31,31 -82,31 -113,0 -31,-31 -31,-81 1,-112zm-198 -198l0 0c31,-31 82,-30 113,1 31,31 31,81 0,112 -31,31 -82,31 -113,0 -31,-31 -31,-81 0,-113zm-197 -197l0 0c31,-31 82,-30 113,1 31,31 31,81 0,112 -31,31 -82,31 -113,0 -31,-31 -31,-81 0,-113zm-196 -196l0 0c31,-31 81,-31 112,0 31,31 31,81 0,112 -31,31 -82,31 -113,1 -31,-32 -30,-82 1,-113zm-197 -197l0 0c31,-31 81,-31 112,0 31,31 31,81 0,112 -31,31 -82,31 -113,0 -31,-31 -30,-81 1,-112zm-198 -198l0 0c31,-31 82,-30 113,1 31,31 31,81 0,112 -31,31 -82,31 -113,1 -31,-32 -31,-82 0,-114zm-196 -196l0 0c31,-31 81,-31 112,0 31,31 31,81 0,112 -31,31 -82,31 -112,1 -32,-32 -31,-82 0,-113zm-197 -197l0 0c31,-31 81,-31 112,0 31,31 31,81 0,112 -31,32 -82,32 -113,0 -31,-31 -30,-81 1,-112zm-197 -198l0 0c30,-31 81,-30 112,1 31,31 31,81 0,112 -31,32 -82,32 -112,1 -32,-32 -32,-82 0,-114zm-197 -196l0 0c31,-31 81,-31 112,0 31,31 31,81 0,112 -31,31 -82,32 -112,1 -32,-32 -31,-82 0,-113zm-197 -197l0 0c31,-31 81,-31 112,0 31,31 31,81 0,112 -31,32 -82,32 -113,0 -31,-31 -30,-81 1,-112zm-197 -198l0 0c31,-30 81,-30 112,1 31,31 31,81 0,112 -31,32 -81,32 -112,1 -32,-32 -32,-82 0,-114z"/>
   </g>
   <g>
    <g style="clip-path:url(#id0)">
     <image x="0" y="0" width="15931" height="17510" xlink:href="5892-txtbg-73b4eadc-e3af-4e1a-8fc3-2bc312345dce_Images\5892-txtbg-73b4eadc-e3af-4e1a-8fc3-2bc312345dce_ImgID1.png"/>
    </g>
    <g>
     <g>
      <g>
       <path class="fil2" d="M14302 5013c174,192 489,192 701,1 211,-192 242,-506 69,-697 -174,-192 -489,-192 -701,-1 -211,192 -242,506 -69,697z"/>
      </g>
      <g>
       <path class="fil3" d="M12909 1198c174,192 476,203 673,26 196,-178 214,-480 40,-672 -173,-192 -476,-203 -672,-26 -196,178 -214,480 -41,672z"/>
      </g>
      <g>
       <path class="fil4" d="M9790 5358c-174,-192 -134,-517 88,-723l2202 -2043c222,-205 262,-531 88,-723 -174,-191 -499,-181 -723,23l-3547 3230c-224,204 -594,533 -823,732l-1828 1586c-229,198 -597,529 -819,736l-2438 2267c-222,206 -261,531 -87,723 173,192 496,179 716,-29l1253 -1181c220,-208 543,-221 716,-29 174,191 135,517 -87,723l-2478 2302c-222,206 -262,532 -88,723 174,192 499,183 724,-20l1479 -1340c224,-203 550,-213 724,-21 173,192 133,517 -90,722l-3122 2876c-223,205 -263,530 -89,722 174,191 497,179 719,-27l3867 -3600c222,-206 546,-218 719,-26 174,192 136,518 -85,726l-735 693c-220,208 -259,534 -85,726 174,192 497,180 719,-27l1920 -1790c222,-206 591,-537 820,-734l1757 -1512c229,-197 599,-527 821,-733l1500 -1387c222,-206 262,-531 89,-723 -174,-192 -496,-178 -716,30l-527 500c-220,208 -541,221 -715,30 -174,-192 -134,-517 88,-723l1788 -1658c222,-206 261,-531 88,-723 -174,-192 -504,-187 -734,10l-382 327c-229,197 -560,201 -733,10 -174,-192 -130,-512 98,-712l2475 -2176c227,-200 271,-520 98,-712 -174,-192 -499,-181 -722,23l-3181 2909c-224,204 -548,214 -722,23z"/>
      </g>
      <g>
       <path class="fil5" d="M4517 16414c174,192 487,193 697,4 210,-190 239,-503 65,-694 -173,-192 -487,-194 -697,-4 -209,190 -239,502 -65,694z"/>
      </g>
      <g>
       <path class="fil6" d="M1257 14290c-174,-192 -488,-194 -697,-4 -210,190 -239,502 -65,694 173,192 487,193 696,4 210,-190 239,-502 66,-694z"/>
      </g>
     </g>
    </g>
   </g>
   <polyline class="fil1 str0" points="1573,10083 409,8919 8238,1090 10865,3717 "/>
   <line class="fil1 str0" x1="5282" y1="13793" x2="4633" y2= "13143" />
   <polyline class="fil1 str0" points="12818,5669 16068,8919 8238,16749 6818,15329 "/>
   <path class="fil7" d="M3224 2360c0,200 -162,362 -362,362 -200,0 -362,-162 -362,-362 0,-200 162,-362 362,-362 200,0 362,162 362,362z"/>
   <path class="fil8" d="M830 6068c0,116 -94,211 -211,211 -116,0 -210,-95 -210,-211 0,-116 94,-210 210,-210 117,0 211,94 211,210z"/>
   <path class="fil7" d="M16317 16578c0,184 -149,333 -333,333 -184,0 -333,-149 -333,-333 0,-184 149,-334 333,-334 184,0 333,150 333,334z"/>
   <path class="fil8" d="M16278 7273c0,116 -94,210 -210,210 -117,0 -211,-94 -211,-210 0,-116 94,-211 211,-211 116,0 210,95 210,211z"/>
  </g>
 </g>
</svg>
